<?xml version="1.0" encoding="UTF-8" standalone="no"?>
<!-- Created with Inkscape (http://www.inkscape.org/) -->

<svg
   width="512"
   height="512"
   viewBox="0 0 135.46666 135.46667"
   version="1.1"
   id="svg1"
   inkscape:version="1.3.2 (091e20e, 2023-11-25)"
   sodipodi:docname="Icon-Svg.svg"
   xml:space="preserve"
   xmlns:inkscape="http://www.inkscape.org/namespaces/inkscape"
   xmlns:sodipodi="http://sodipodi.sourceforge.net/DTD/sodipodi-0.dtd"
   xmlns="http://www.w3.org/2000/svg"
   xmlns:svg="http://www.w3.org/2000/svg"><sodipodi:namedview
     id="namedview1"
     pagecolor="#ffffff"
     bordercolor="#000000"
     borderopacity="0.25"
     inkscape:showpageshadow="2"
     inkscape:pageopacity="0.0"
     inkscape:pagecheckerboard="false"
     inkscape:deskcolor="#d1d1d1"
     inkscape:document-units="px"
     inkscape:zoom="1"
     inkscape:cx="247.49999"
     inkscape:cy="55.499999"
     inkscape:window-width="1392"
     inkscape:window-height="1212"
     inkscape:window-x="238"
     inkscape:window-y="34"
     inkscape:window-maximized="0"
     inkscape:current-layer="layer1" /><defs
     id="defs1"><inkscape:path-effect
       effect="fillet_chamfer"
       id="path-effect4"
       is_visible="true"
       lpeversion="1"
       nodesatellites_param="F,0,0,1,0,28,0,1 @ F,0,0,1,0,28,0,1 @ F,0,0,1,0,28,0,1 @ F,0,0,1,0,28,0,1"
       radius="28"
       unit="px"
       method="auto"
       mode="F"
       chamfer_steps="1"
       flexible="false"
       use_knot_distance="true"
       apply_no_radius="true"
       apply_with_radius="true"
       only_selected="false"
       hide_knots="false" /><inkscape:path-effect
       effect="fillet_chamfer"
       id="path-effect1"
       is_visible="true"
       lpeversion="1"
       nodesatellites_param="F,0,0,1,0,59,0,1 @ F,0,0,1,0,59,0,1 @ F,0,0,1,0,59,0,1 @ F,0,0,1,0,59,0,1"
       radius="59"
       unit="px"
       method="auto"
       mode="F"
       chamfer_steps="1"
       flexible="false"
       use_knot_distance="true"
       apply_no_radius="true"
       apply_with_radius="true"
       only_selected="false"
       hide_knots="false" /></defs><g
     inkscape:label="Layer 1"
     inkscape:groupmode="layer"
     id="layer1"><path
       id="rect3"
       style="fill:#323232;fill-opacity:1;stroke:none;stroke-width:6.4573;stroke-linecap:round;stroke-linejoin:round;stroke-dasharray:none"
       d="m 14.536144,75.113033 0.347634,120.006357 c 0.09439,32.58466 26.585999,59.07637 59.170662,59.17069 41.17134,0.11917 82.34282,0.23817 123.51417,0.35735 32.58466,0.0943 58.92313,-26.24416 58.82845,-58.82882 -0.11623,-40.00151 -0.23259,-80.0029 -0.34882,-120.004406 C 255.95356,43.229542 229.46186,16.737763 196.8772,16.643161 L 73.364985,16.284573 a 58.658786,58.658786 135.00019 0 0 -58.828841,58.82846 z"
       transform="matrix(0.56010034,0,0,0.56832002,-8.1415615,-9.2547082)"
       inkscape:path-effect="#path-effect1"
       inkscape:original-d="m 14.365234,16.113281 0.689454,238.005859 c 80.504219,0.23351 161.009452,0.46572 241.513672,0.69922 -0.23011,-79.33495 -0.46131,-158.668955 -0.69141,-238.003907 z" /><path
       d="M 100.2828,64.563046 C 94.470065,46.74659 76.822992,55.965946 81.95543,34.558087 c 0.761239,-3.176433 0.201365,-11.121663 -7.122397,-12.501211 -0.03869,-0.0091 -0.75729,-0.111343 -0.797563,-0.112922 -7.190704,-1.027751 -9.919791,7.046195 -10.294883,10.290934 -2.223701,19.246147 -16.224488,7.83902 -26.771274,23.330303 -10.546391,15.491678 11.416998,10.119971 14.146086,30.661566 1.374809,13.481977 -1.967059,15.038413 -3.380168,21.495903 -2.822663,12.90631 20.695581,3.5227 30.418744,-17.653386 C 86.498381,71.10109 106.09514,82.379107 100.2828,64.563046 Z M 72.058145,32.088405 c -0.245192,1.727001 -1.462858,2.982571 -2.719217,2.804106 -1.255965,-0.178465 -2.075244,-1.723447 -1.829657,-3.450448 0.245191,-1.727001 1.462857,-2.98257 2.718427,-2.804106 1.256359,0.178465 2.076033,1.723447 1.830447,3.450448 z m 7.167013,1.018275 c -0.245586,1.727001 -1.462857,2.982571 -2.720006,2.804106 -1.255965,-0.178465 -2.074849,-1.723447 -1.829658,-3.450448 0.245192,-1.727001 1.462463,-2.98257 2.718427,-2.804106 1.257149,0.178465 2.076823,1.723447 1.831237,3.450448 z"
       id="path1"
       style="fill:#f6f6f6;fill-opacity:1;stroke-width:0.394999;stroke-dasharray:none"
       inkscape:label="ghost" /></g></svg>
